<svg width="170" height="170" viewBox="0 0 170 170" fill="none" xmlns="http://www.w3.org/2000/svg">
<rect width="170" height="170" rx="20" fill="#F3F2F2"/>
<g filter="url(#filter0_d_1483_85)">
<path d="M21.8225 120.776C21.8225 128.115 23.5292 133.32 26.9425 136.392C30.2705 139.464 35.8172 141 43.5825 141H69.1825V51.4H45.1185C37.5238 51.4 31.9772 52.936 28.4785 56.008C24.8945 59.08 23.1025 64.2 23.1025 71.368V78.664C23.1025 85.2347 25.4492 90.184 30.1425 93.512C24.5958 96.584 21.8225 101.832 21.8225 109.256V120.776ZM34.2385 70.216C34.2385 66.9733 35.0065 64.6267 36.5425 63.176C37.9932 61.7253 40.3398 61 43.5825 61H58.0465V89.288H43.5825C40.9372 89.288 38.7185 88.4347 36.9265 86.728C35.1345 85.0213 34.2385 82.76 34.2385 79.944V70.216ZM32.9585 108.104C32.9585 105.288 33.8118 103.069 35.5185 101.448C37.2252 99.7413 39.4865 98.888 42.3025 98.888H58.0465V131.4H42.4305C39.1878 131.4 36.7985 130.675 35.2625 129.224C33.7265 127.688 32.9585 125.299 32.9585 122.056V108.104Z" fill="#111827"/>
<path d="M140.558 91.336V100.68H112.142V141H101.006V51.4H143.758V60.744H112.142V91.336H140.558Z" fill="#111827"/>
<line x1="84.9998" y1="141.008" x2="84.9998" y2="37.0001" stroke="#111827" stroke-width="10"/>
<line x1="148" y1="37" x2="22" y2="37" stroke="#111827" stroke-width="10"/>
<line x1="148" y1="56" x2="101" y2="56" stroke="#111827" stroke-width="10"/>
<path d="M147.898 128.2V141H135.098V128.2H147.898Z" fill="#111827"/>
</g>
<defs>
<filter id="filter0_d_1483_85" x="17.8225" y="32" width="134.177" height="117.008" filterUnits="userSpaceOnUse" color-interpolation-filters="sRGB">
<feFlood flood-opacity="0" result="BackgroundImageFix"/>
<feColorMatrix in="SourceAlpha" type="matrix" values="0 0 0 0 0 0 0 0 0 0 0 0 0 0 0 0 0 0 127 0" result="hardAlpha"/>
<feOffset dy="4"/>
<feGaussianBlur stdDeviation="2"/>
<feComposite in2="hardAlpha" operator="out"/>
<feColorMatrix type="matrix" values="0 0 0 0 0 0 0 0 0 0 0 0 0 0 0 0 0 0 0.25 0"/>
<feBlend mode="normal" in2="BackgroundImageFix" result="effect1_dropShadow_1483_85"/>
<feBlend mode="normal" in="SourceGraphic" in2="effect1_dropShadow_1483_85" result="shape"/>
</filter>
</defs>
</svg>
