<svg width="126" height="114" viewBox="0 0 126 114" fill="none" xmlns="http://www.w3.org/2000/svg">
<g id="Group 224">
<path id="B" d="M-0.177502 92.776C-0.177502 100.115 1.52916 105.32 4.9425 108.392C8.2705 111.464 13.8172 113 21.5825 113H47.1825V23.4H23.1185C15.5238 23.4 9.97716 24.936 6.4785 28.008C2.8945 31.08 1.1025 36.2 1.1025 43.368V50.664C1.1025 57.2347 3.44916 62.184 8.1425 65.512C2.59583 68.584 -0.177502 73.832 -0.177502 81.256V92.776ZM12.2385 42.216C12.2385 38.9733 13.0065 36.6267 14.5425 35.176C15.9932 33.7253 18.3398 33 21.5825 33H36.0465V61.288H21.5825C18.9372 61.288 16.7185 60.4347 14.9265 58.728C13.1345 57.0213 12.2385 54.76 12.2385 51.944V42.216ZM10.9585 80.104C10.9585 77.288 11.8118 75.0693 13.5185 73.448C15.2252 71.7413 17.4865 70.888 20.3025 70.888H36.0465V103.4H20.4305C17.1878 103.4 14.7985 102.675 13.2625 101.224C11.7265 99.688 10.9585 97.2987 10.9585 94.056V80.104Z" fill="#333333"/>
<path id="F" d="M118.558 63.336V72.68H90.1415V113H79.0055V23.4H121.758V32.744H90.1415V63.336H118.558Z" fill="#333333"/>
<line id="Line 9" x1="62.9998" y1="113.008" x2="62.9998" y2="9.00008" stroke="#333333" stroke-width="10"/>
<line id="Line 10" x1="126" y1="9" y2="9" stroke="#333333" stroke-width="10"/>
<line id="Line 11" x1="126" y1="28" x2="79" y2="28" stroke="#333333" stroke-width="10"/>
<path id="." d="M125.898 100.2V113H113.098V100.2H125.898Z" fill="#DC143C"/>
</g>
</svg>
